<svg id="svg" version="1.1" xmlns="http://www.w3.org/2000/svg" xmlns:xlink="http://www.w3.org/1999/xlink" width="400" height="400" viewBox="0, 0, 400,400"><g id="svgg"><path id="path0" d="M46.200 127.571 C 40.480 127.697,35.505 127.946,35.145 128.125 C 34.235 128.578,33.755 149.603,34.358 162.600 C 36.116 200.523,45.435 232.959,62.759 261.461 C 66.496 267.610,69.582 272.216,72.157 275.488 C 73.061 276.637,74.430 278.413,75.200 279.436 C 82.628 289.303,99.094 305.521,109.400 313.120 C 109.620 313.283,110.880 314.224,112.200 315.211 C 113.520 316.199,115.050 317.317,115.600 317.696 C 116.150 318.074,118.130 319.464,120.000 320.785 C 121.870 322.106,124.100 323.566,124.956 324.030 C 125.812 324.494,126.712 325.040,126.956 325.243 C 127.720 325.877,130.531 327.682,132.200 328.610 C 133.080 329.099,134.855 330.107,136.145 330.850 C 141.023 333.658,142.394 334.385,149.600 337.979 C 158.889 342.613,161.447 343.817,163.174 344.370 C 163.930 344.612,164.830 345.061,165.174 345.368 C 165.518 345.675,166.610 346.137,167.600 346.395 C 168.590 346.654,169.760 347.093,170.200 347.371 C 171.068 347.920,174.199 349.149,178.563 350.654 C 180.083 351.178,181.523 351.769,181.763 351.966 C 182.003 352.163,183.280 352.620,184.600 352.982 C 185.920 353.344,187.450 353.884,188.000 354.183 C 188.550 354.482,190.104 355.013,191.454 355.362 C 192.804 355.712,194.694 356.355,195.654 356.790 C 196.614 357.226,197.730 357.586,198.133 357.591 C 198.536 357.596,200.096 358.140,201.600 358.800 C 204.912 360.254,206.296 360.297,208.974 359.029 C 210.103 358.496,211.560 357.927,212.213 357.766 C 212.866 357.605,213.770 357.234,214.221 356.942 C 214.673 356.650,216.104 356.046,217.400 355.600 C 218.696 355.154,220.143 354.536,220.615 354.227 C 221.086 353.918,222.264 353.452,223.232 353.191 C 224.201 352.931,225.444 352.402,225.996 352.017 C 226.548 351.632,227.492 351.198,228.092 351.053 C 230.229 350.536,255.562 338.088,260.000 335.374 C 261.210 334.634,262.619 333.841,263.131 333.612 C 263.643 333.383,265.353 332.410,266.931 331.449 C 274.859 326.619,276.277 325.741,277.200 325.088 C 278.194 324.384,281.878 321.911,284.777 320.000 C 288.402 317.612,289.825 316.619,290.200 316.219 C 290.420 315.983,292.310 314.533,294.400 312.996 C 312.796 299.465,333.989 277.069,343.815 260.777 C 344.212 260.118,345.784 257.710,347.193 255.600 C 347.561 255.050,348.716 253.070,349.762 251.200 C 350.807 249.330,351.916 247.350,352.228 246.800 C 352.539 246.250,353.068 245.170,353.404 244.400 C 353.740 243.630,354.267 242.550,354.577 242.000 C 354.887 241.450,355.670 239.830,356.318 238.400 C 356.966 236.970,357.969 234.792,358.548 233.560 C 359.127 232.328,359.606 231.068,359.613 230.760 C 359.619 230.452,360.159 229.125,360.813 227.810 C 361.466 226.496,362.000 225.095,362.000 224.697 C 362.000 224.299,362.425 223.124,362.945 222.087 C 363.465 221.049,364.022 219.480,364.182 218.601 C 364.342 217.721,364.907 215.971,365.437 214.713 C 365.967 213.454,366.400 211.997,366.400 211.475 C 366.400 210.952,366.773 209.462,367.229 208.163 C 367.685 206.863,368.229 204.648,368.436 203.239 C 368.644 201.830,369.165 199.490,369.595 198.039 C 370.024 196.588,370.667 193.076,371.022 190.235 C 371.378 187.395,371.835 184.635,372.037 184.103 C 373.911 179.175,374.038 129.866,372.182 128.010 C 371.555 127.383,72.937 126.981,46.200 127.571 M131.400 375.200 C 130.960 375.389,114.467 375.556,94.749 375.572 C 64.941 375.595,58.821 375.692,58.444 376.147 C 57.298 377.528,58.471 377.580,95.631 377.791 C 115.744 377.905,139.490 378.073,148.400 378.164 C 157.310 378.255,164.150 378.181,163.600 378.000 L 162.600 377.671 163.500 377.389 C 165.086 376.891,164.465 376.400,162.250 376.400 C 159.176 376.400,157.511 376.009,157.766 375.346 C 158.009 374.712,132.859 374.573,131.400 375.200 M240.096 375.254 C 240.238 375.902,238.664 376.312,235.851 376.360 C 233.818 376.395,233.569 376.480,233.996 376.996 C 234.268 377.323,234.638 377.500,234.818 377.389 C 234.998 377.278,235.249 377.356,235.377 377.563 C 235.505 377.770,235.293 378.024,234.905 378.128 C 234.517 378.232,241.220 378.246,249.800 378.159 C 258.380 378.072,281.897 377.907,302.059 377.791 C 340.283 377.571,340.901 377.541,339.349 375.989 C 339.122 375.762,324.527 375.533,302.586 375.411 C 282.574 375.300,260.303 375.113,253.096 374.994 C 243.091 374.830,240.017 374.891,240.096 375.254 " stroke="none" fill="#ffffff" fill-rule="evenodd"></path><path id="path1" d="M200.142 47.706 C 199.109 48.301,195.878 50.570,192.600 53.004 C 191.280 53.984,189.480 55.170,188.600 55.639 C 187.720 56.109,186.730 56.727,186.400 57.013 C 185.683 57.635,183.558 58.829,178.264 61.588 C 176.099 62.716,174.029 63.797,173.664 63.990 C 161.939 70.190,142.977 74.799,126.400 75.479 C 111.865 76.075,86.100 70.458,71.902 63.598 C 69.192 62.289,68.050 62.532,66.200 64.812 C 64.829 66.503,64.214 66.905,61.896 67.627 C 59.291 68.438,59.162 68.540,58.352 70.422 C 57.890 71.496,57.272 72.574,56.978 72.818 C 56.684 73.062,56.148 74.151,55.787 75.238 C 55.326 76.626,54.798 77.387,54.015 77.792 C 52.991 78.322,49.600 84.207,49.600 85.455 C 49.600 85.688,48.994 87.032,48.253 88.440 C 47.513 89.848,46.698 91.647,46.443 92.438 C 46.177 93.262,45.541 94.110,44.955 94.424 C 44.392 94.725,43.656 95.518,43.319 96.186 C 42.981 96.854,42.286 97.960,41.774 98.645 C 41.262 99.330,40.720 100.410,40.569 101.045 C 40.418 101.680,39.890 103.104,39.395 104.208 C 38.900 105.313,38.273 107.293,38.002 108.608 C 37.731 109.924,37.270 111.465,36.979 112.033 C 36.687 112.602,36.168 114.312,35.826 115.833 C 35.483 117.355,34.718 120.368,34.125 122.529 C 33.206 125.878,33.132 126.512,33.623 126.823 C 34.623 127.455,369.810 127.310,370.336 126.677 C 370.657 126.290,370.514 125.650,369.785 124.210 C 369.243 123.140,368.800 122.066,368.800 121.825 C 368.800 121.583,367.878 119.498,366.752 117.192 C 365.626 114.887,364.472 112.348,364.188 111.550 C 363.758 110.345,361.188 106.306,360.400 105.600 C 360.024 105.262,356.000 98.117,356.000 97.786 C 356.000 97.615,355.540 96.873,354.979 96.137 C 354.417 95.400,353.758 94.213,353.514 93.499 C 353.270 92.785,352.649 91.573,352.135 90.807 C 351.621 90.041,351.200 89.226,351.200 88.996 C 351.200 88.766,350.450 87.143,349.533 85.389 C 348.616 83.635,347.264 81.037,346.529 79.615 C 345.793 78.193,344.681 76.483,344.057 75.815 C 343.432 75.147,341.790 72.440,340.407 69.800 C 333.486 56.586,333.818 56.799,325.975 60.521 C 318.975 63.842,317.564 64.452,315.400 65.091 C 314.300 65.416,313.171 65.869,312.890 66.098 C 312.164 66.691,302.562 69.327,296.000 70.734 C 284.358 73.230,264.040 73.175,254.000 70.619 C 252.790 70.310,250.630 69.778,249.200 69.435 C 245.172 68.468,239.129 66.569,237.800 65.852 C 237.140 65.496,236.353 65.204,236.050 65.202 C 234.851 65.197,220.744 58.436,216.400 55.785 C 215.190 55.046,213.712 54.161,213.115 53.818 C 212.518 53.475,210.011 51.846,207.544 50.197 C 202.987 47.153,201.798 46.753,200.142 47.706 " stroke="none" fill="#b1b1b1" fill-rule="evenodd"></path><path id="path2" d="M201.800 2.577 C 200.700 3.126,199.170 3.583,198.400 3.594 C 196.803 3.615,196.251 3.902,195.881 4.906 C 195.738 5.294,195.166 5.785,194.610 5.996 C 193.989 6.232,193.600 6.692,193.600 7.190 C 193.600 7.786,193.337 8.000,192.608 8.000 C 191.892 8.000,191.548 8.269,191.373 8.965 C 191.238 9.504,190.744 10.028,190.254 10.151 C 189.772 10.272,188.482 11.273,187.389 12.376 C 186.295 13.479,184.914 14.583,184.319 14.831 C 183.725 15.078,182.956 15.713,182.610 16.240 C 182.264 16.768,181.712 17.200,181.382 17.200 C 181.053 17.200,180.578 17.650,180.327 18.200 C 180.077 18.750,179.549 19.200,179.154 19.200 C 178.759 19.200,178.023 19.605,177.518 20.100 C 177.013 20.595,175.925 21.312,175.100 21.694 C 174.275 22.075,173.600 22.660,173.600 22.994 C 173.600 23.327,173.254 23.600,172.831 23.600 C 172.408 23.600,171.508 24.065,170.832 24.634 C 170.156 25.203,169.108 25.798,168.502 25.956 C 167.896 26.115,167.222 26.639,167.005 27.122 C 166.788 27.605,166.284 28.000,165.885 28.000 C 164.853 28.000,162.940 29.059,162.661 29.785 C 162.528 30.132,161.940 30.402,161.313 30.405 C 159.548 30.414,158.444 30.831,158.207 31.577 C 158.066 32.023,157.316 32.398,156.094 32.634 C 154.755 32.893,154.090 33.252,153.823 33.858 C 153.506 34.579,153.034 34.743,150.870 34.881 C 148.835 35.010,148.146 35.226,147.593 35.909 C 147.022 36.614,146.294 36.823,143.643 37.045 C 141.013 37.264,140.198 37.496,139.375 38.258 L 138.359 39.200 122.144 39.200 C 105.943 39.200,105.928 39.199,105.219 38.324 C 104.652 37.624,103.901 37.390,101.475 37.158 C 99.302 36.951,98.201 36.645,97.597 36.083 C 96.777 35.319,94.868 34.813,92.770 34.804 C 92.203 34.802,91.335 34.369,90.840 33.842 C 90.203 33.164,89.307 32.806,87.774 32.614 C 86.583 32.465,85.471 32.112,85.304 31.830 C 84.856 31.074,83.399 30.400,82.214 30.400 C 81.642 30.400,81.069 30.123,80.939 29.785 C 80.660 29.059,78.747 28.000,77.715 28.000 C 77.316 28.000,76.812 27.604,76.595 27.119 C 76.378 26.635,75.650 26.099,74.978 25.928 C 74.306 25.757,73.329 25.164,72.808 24.609 C 72.184 23.944,71.430 23.600,70.600 23.600 C 69.773 23.600,69.017 23.256,68.400 22.600 C 67.883 22.050,67.159 21.600,66.790 21.600 C 66.421 21.600,65.554 21.060,64.863 20.400 C 63.701 19.290,63.388 19.200,60.674 19.200 L 57.740 19.200 55.522 21.400 C 54.303 22.610,53.126 23.600,52.907 23.600 C 52.045 23.600,50.400 25.736,50.400 26.855 C 50.400 27.813,50.235 28.000,49.390 28.000 C 48.592 28.000,48.331 28.247,48.144 29.178 C 47.984 29.981,47.637 30.395,47.054 30.478 C 46.500 30.557,46.152 30.940,46.063 31.567 C 45.988 32.100,45.403 33.058,44.763 33.698 C 44.124 34.338,43.600 35.278,43.600 35.787 C 43.600 36.441,43.306 36.787,42.600 36.964 C 41.866 37.148,41.600 37.482,41.600 38.218 C 41.600 38.903,41.301 39.333,40.655 39.579 C 39.710 39.938,39.216 41.003,39.205 42.700 C 39.202 43.335,38.962 43.600,38.391 43.600 C 37.892 43.600,37.399 44.021,37.103 44.700 C 36.839 45.305,36.213 46.196,35.712 46.681 C 35.100 47.272,34.800 48.028,34.800 48.981 C 34.800 50.125,34.648 50.400,34.014 50.400 C 33.153 50.400,32.400 51.494,32.400 52.745 C 32.400 53.183,31.950 53.896,31.400 54.329 C 30.775 54.821,30.400 55.520,30.400 56.195 C 30.400 56.915,30.150 57.340,29.649 57.471 C 28.806 57.692,28.000 59.184,28.000 60.524 C 28.000 61.059,27.644 61.567,27.100 61.805 C 26.454 62.089,26.100 62.716,25.846 64.028 C 25.601 65.295,25.233 65.971,24.646 66.228 C 23.990 66.517,23.773 67.017,23.680 68.462 C 23.578 70.028,23.412 70.361,22.627 70.557 C 21.639 70.806,21.214 71.795,21.205 73.872 C 21.201 74.885,21.016 75.170,20.300 75.272 C 19.519 75.383,19.384 75.672,19.280 77.462 C 19.177 79.239,19.032 79.555,18.228 79.757 C 17.249 80.003,16.815 80.994,16.805 83.004 C 16.802 83.759,16.510 84.389,16.022 84.694 C 15.169 85.226,14.406 87.478,14.402 89.472 C 14.400 90.486,14.217 90.770,13.500 90.872 C 12.724 90.982,12.583 91.276,12.476 93.000 C 12.378 94.574,12.136 95.173,11.337 95.814 C 10.487 96.495,10.287 97.060,10.108 99.293 C 9.921 101.621,9.787 101.974,9.047 102.079 C 8.280 102.189,8.189 102.491,8.083 105.300 C 7.996 107.620,7.827 108.400,7.412 108.400 C 6.151 108.400,5.600 109.611,5.600 112.385 C 5.600 114.936,5.537 115.129,4.634 115.356 C 3.224 115.709,3.109 117.995,3.265 142.464 L 3.400 163.528 4.500 164.393 L 5.600 165.258 5.600 175.415 L 5.600 185.572 6.800 186.800 L 8.000 188.028 8.000 193.758 C 8.000 199.403,8.015 199.499,9.000 200.239 C 9.939 200.944,10.000 201.213,10.000 204.645 C 10.000 209.541,10.257 210.677,11.430 210.972 C 12.333 211.198,12.377 211.378,12.486 215.304 C 12.592 219.114,12.663 219.428,13.500 219.795 C 14.296 220.144,14.400 220.480,14.400 222.708 C 14.400 225.352,15.120 227.684,16.114 228.259 C 16.513 228.490,16.759 229.492,16.874 231.356 C 17.023 233.764,17.181 234.220,18.123 234.971 C 19.025 235.690,19.200 236.144,19.200 237.757 C 19.200 239.337,19.381 239.827,20.200 240.471 C 20.994 241.096,21.200 241.618,21.200 243.003 C 21.200 245.386,21.792 246.800,22.790 246.800 C 23.498 246.800,23.600 247.058,23.600 248.842 C 23.600 250.545,23.767 251.016,24.600 251.671 C 25.264 252.194,25.600 252.856,25.600 253.642 C 25.600 255.245,26.628 257.600,27.328 257.600 C 27.705 257.600,27.965 258.208,28.100 259.410 C 28.243 260.677,28.618 261.510,29.352 262.190 C 30.030 262.819,30.400 263.582,30.400 264.352 C 30.400 265.502,31.264 266.800,32.029 266.800 C 32.233 266.800,32.400 267.256,32.400 267.814 C 32.400 269.046,33.485 270.800,34.246 270.800 C 34.612 270.800,34.800 271.274,34.800 272.200 C 34.800 273.427,34.924 273.600,35.800 273.600 C 36.660 273.600,36.801 273.781,36.805 274.900 C 36.815 277.115,37.211 278.000,38.194 278.000 C 38.950 278.000,39.131 278.271,39.321 279.686 C 39.480 280.872,39.851 281.593,40.573 282.119 C 41.186 282.565,41.600 283.257,41.600 283.833 C 41.600 284.598,41.809 284.800,42.600 284.800 C 43.452 284.800,43.600 284.984,43.600 286.040 C 43.600 286.901,43.966 287.621,44.800 288.400 C 45.460 289.017,46.000 289.895,46.000 290.353 C 46.000 290.907,46.334 291.269,47.000 291.436 C 47.645 291.598,48.000 291.968,48.000 292.478 C 48.000 292.990,48.424 293.429,49.200 293.722 C 50.125 294.072,50.400 294.423,50.400 295.255 C 50.400 296.848,50.799 297.619,51.824 298.009 C 52.336 298.204,52.796 298.763,52.869 299.278 C 52.953 299.869,53.314 300.245,53.876 300.325 C 54.489 300.412,54.789 300.772,54.876 301.525 C 54.973 302.362,55.243 302.628,56.100 302.727 C 56.961 302.826,57.200 303.063,57.200 303.819 C 57.200 304.516,57.479 304.855,58.200 305.036 C 58.918 305.216,59.200 305.557,59.200 306.243 C 59.200 306.770,59.380 307.200,59.600 307.200 C 59.820 307.200,60.000 307.458,60.000 307.773 C 60.000 308.088,60.342 308.455,60.760 308.587 C 61.178 308.720,61.633 309.278,61.771 309.828 C 61.909 310.378,62.458 311.026,62.990 311.268 C 63.523 311.511,64.013 312.090,64.079 312.555 C 64.154 313.079,64.542 313.449,65.100 313.528 C 65.637 313.604,66.000 313.935,66.000 314.348 C 66.000 315.244,66.768 316.000,67.680 316.000 C 68.180 316.000,68.400 316.303,68.400 316.992 C 68.400 317.703,68.669 318.052,69.350 318.223 C 69.872 318.354,70.498 318.898,70.741 319.431 C 70.997 319.991,71.524 320.400,71.991 320.400 C 72.503 320.400,72.800 320.664,72.800 321.120 C 72.800 322.032,73.556 322.800,74.452 322.800 C 74.865 322.800,75.196 323.163,75.272 323.700 C 75.355 324.286,75.722 324.646,76.322 324.731 C 76.843 324.805,77.397 325.266,77.598 325.794 C 77.820 326.379,78.412 326.827,79.190 326.998 C 79.874 327.148,80.813 327.791,81.289 328.435 C 81.808 329.137,82.518 329.600,83.075 329.600 C 83.784 329.600,84.000 329.824,84.000 330.557 C 84.000 331.232,84.281 331.584,84.956 331.753 C 85.535 331.899,86.011 332.388,86.163 332.997 C 86.345 333.721,86.684 334.000,87.380 334.000 C 88.076 334.000,88.380 334.251,88.472 334.900 C 88.555 335.486,88.922 335.846,89.523 335.931 C 90.030 336.003,90.637 336.482,90.871 336.997 C 91.316 337.973,92.260 338.385,94.073 338.395 C 94.945 338.399,95.171 338.606,95.273 339.500 C 95.362 340.271,95.658 340.637,96.262 340.723 C 96.787 340.798,97.221 341.228,97.370 341.823 C 97.533 342.471,97.898 342.800,98.455 342.800 C 98.917 342.800,99.909 343.340,100.661 344.000 C 101.413 344.660,102.472 345.200,103.014 345.200 C 103.737 345.200,104.000 345.416,104.000 346.010 C 104.000 346.527,104.397 346.968,105.100 347.230 C 105.705 347.456,106.480 348.004,106.823 348.448 C 107.197 348.934,108.114 349.345,109.123 349.480 C 110.532 349.669,110.800 349.850,110.800 350.610 C 110.800 351.572,111.478 352.000,113.004 352.000 C 113.528 352.000,114.289 352.441,114.729 353.000 C 115.208 353.610,115.922 354.000,116.558 354.000 C 117.327 354.000,117.600 354.206,117.600 354.786 C 117.600 355.780,118.742 356.400,120.574 356.400 C 121.817 356.400,122.000 356.525,122.000 357.371 C 122.000 358.247,122.213 358.369,124.178 358.615 C 125.995 358.842,126.376 359.029,126.478 359.743 C 126.563 360.338,126.931 360.638,127.685 360.725 C 128.281 360.794,129.335 361.379,130.027 362.025 C 130.719 362.671,131.694 363.200,132.194 363.200 C 132.693 363.200,133.349 363.571,133.651 364.025 C 134.001 364.551,134.802 364.931,135.857 365.072 C 137.077 365.235,137.626 365.538,137.936 366.219 C 138.257 366.925,138.814 367.212,140.279 367.428 C 141.472 367.603,142.558 368.065,143.145 368.646 C 143.664 369.160,144.744 369.688,145.545 369.819 C 147.467 370.134,148.800 370.809,148.800 371.468 C 148.800 371.846,149.435 372.000,151.000 372.000 C 152.911 372.000,153.200 372.102,153.200 372.776 C 153.200 373.769,153.615 374.009,155.920 374.350 C 157.325 374.558,157.773 374.788,157.694 375.263 C 157.568 376.019,159.094 376.400,162.250 376.400 C 164.468 376.400,165.081 376.888,163.500 377.396 C 162.644 377.671,162.639 377.694,163.400 377.881 C 163.840 377.989,164.371 378.240,164.580 378.439 C 164.789 378.637,165.795 378.800,166.816 378.800 C 168.376 378.800,168.740 378.950,169.100 379.741 C 169.530 380.685,171.420 381.200,174.456 381.200 C 175.312 381.200,175.600 381.391,175.600 381.957 C 175.600 382.970,176.348 383.200,179.633 383.200 C 182.277 383.200,182.400 383.242,182.400 384.148 C 182.400 385.179,183.695 385.587,187.005 385.596 C 188.284 385.599,188.691 385.783,189.005 386.500 C 189.358 387.305,189.726 387.412,192.500 387.517 C 195.285 387.622,195.600 387.714,195.600 388.427 C 195.600 390.458,203.279 390.772,204.737 388.800 C 205.551 387.699,205.821 387.600,208.021 387.600 C 210.152 387.600,210.465 387.495,210.848 386.654 C 211.213 385.853,211.656 385.673,213.744 385.478 C 216.872 385.186,217.600 384.899,217.600 383.957 C 217.600 383.308,217.907 383.200,219.746 383.200 C 221.368 383.200,222.169 382.980,223.028 382.300 C 223.653 381.805,225.162 381.220,226.382 381.000 C 228.231 380.667,228.621 380.450,228.728 379.700 C 228.839 378.917,229.093 378.800,230.681 378.800 C 232.828 378.800,235.667 378.032,235.359 377.534 C 235.241 377.343,234.998 377.278,234.818 377.389 C 234.638 377.500,234.268 377.323,233.996 376.996 C 233.569 376.480,233.818 376.395,235.851 376.360 C 238.964 376.307,240.231 375.922,240.082 375.073 C 239.999 374.595,240.246 374.400,240.932 374.400 C 243.086 374.400,244.355 373.918,244.478 373.054 C 244.582 372.327,244.906 372.182,246.667 372.080 C 248.346 371.983,248.855 371.776,249.376 370.980 C 249.775 370.371,250.398 370.000,251.022 370.000 C 252.417 370.000,254.763 368.962,255.048 368.218 C 255.185 367.861,255.766 367.600,256.424 367.600 C 257.972 367.600,259.535 366.835,259.819 365.939 C 259.978 365.438,260.438 365.200,261.245 365.200 C 261.982 365.200,262.817 364.819,263.436 364.200 C 263.986 363.650,264.797 363.200,265.238 363.200 C 266.335 363.200,268.252 362.164,268.539 361.415 C 268.677 361.056,269.261 360.800,269.944 360.800 C 270.845 360.800,271.169 360.580,271.355 359.838 C 271.556 359.035,271.928 358.830,273.600 358.600 C 275.272 358.370,275.644 358.165,275.845 357.362 C 276.048 356.556,276.334 356.400,277.615 356.400 C 279.180 356.400,280.400 355.599,280.400 354.571 C 280.400 354.208,280.821 354.000,281.558 354.000 C 282.271 354.000,283.078 353.619,283.658 353.007 C 284.176 352.461,284.969 352.011,285.420 352.007 C 286.434 351.998,287.200 351.273,287.200 350.320 C 287.200 349.767,287.517 349.600,288.567 349.600 C 290.344 349.600,291.200 349.254,291.200 348.536 C 291.200 348.218,291.723 347.776,292.363 347.553 C 293.078 347.304,293.621 346.772,293.771 346.174 C 293.970 345.381,294.268 345.200,295.375 345.200 C 297.235 345.200,298.000 344.847,298.000 343.989 C 298.000 343.508,298.405 343.175,299.200 343.000 C 300.130 342.796,300.400 342.519,300.400 341.768 C 300.400 341.009,300.610 340.800,301.374 340.800 C 302.913 340.800,304.459 340.060,304.679 339.218 C 304.802 338.748,305.296 338.397,305.941 338.323 C 306.668 338.238,307.038 337.932,307.122 337.346 C 307.202 336.780,307.615 336.417,308.340 336.272 C 308.947 336.151,309.673 335.610,309.967 335.062 C 310.309 334.422,310.982 333.980,311.867 333.814 C 312.804 333.638,313.350 333.258,313.597 332.609 C 313.803 332.067,314.352 331.605,314.878 331.531 C 315.469 331.447,315.845 331.086,315.925 330.524 C 316.012 329.911,316.372 329.611,317.125 329.524 C 317.962 329.427,318.228 329.157,318.327 328.300 C 318.426 327.439,318.663 327.200,319.419 327.200 C 320.116 327.200,320.455 326.921,320.636 326.200 C 320.774 325.650,321.110 325.200,321.382 325.200 C 322.290 325.200,324.400 323.949,324.400 323.410 C 324.400 323.117,324.923 322.696,325.562 322.473 C 326.202 322.250,326.844 321.693,326.989 321.234 C 327.139 320.763,327.595 320.400,328.037 320.400 C 328.493 320.400,328.971 320.004,329.181 319.451 C 329.379 318.929,330.005 318.385,330.571 318.243 C 331.248 318.073,331.600 317.711,331.600 317.182 C 331.600 316.687,331.997 316.229,332.639 315.985 C 333.210 315.768,333.772 315.231,333.887 314.791 C 334.002 314.351,334.524 313.884,335.048 313.752 C 335.700 313.588,336.000 313.228,336.000 312.607 C 336.000 311.919,336.290 311.642,337.200 311.460 C 338.153 311.269,338.400 311.012,338.400 310.210 C 338.400 309.452,338.609 309.200,339.237 309.200 C 339.744 309.200,340.159 308.878,340.288 308.384 C 340.406 307.935,341.019 307.301,341.651 306.974 C 342.307 306.634,342.800 306.052,342.800 305.617 C 342.800 305.195,343.173 304.736,343.634 304.589 C 344.093 304.444,344.650 303.802,344.873 303.162 C 345.096 302.523,345.486 301.999,345.739 301.997 C 346.252 301.995,347.600 299.831,347.600 299.011 C 347.600 298.723,348.050 298.374,348.600 298.236 C 349.331 298.052,349.600 297.717,349.600 296.992 C 349.600 296.198,349.801 296.000,350.610 296.000 C 351.408 296.000,351.669 295.753,351.856 294.822 C 352.016 294.019,352.363 293.605,352.946 293.522 C 353.521 293.440,353.839 293.069,353.918 292.387 C 353.986 291.801,354.408 291.211,354.918 290.987 C 355.513 290.726,355.923 290.046,356.177 288.900 C 356.455 287.644,356.748 287.200,357.298 287.200 C 357.751 287.200,358.193 286.767,358.428 286.092 C 358.640 285.482,359.216 284.807,359.707 284.592 C 360.319 284.323,360.640 283.788,360.726 282.893 C 360.812 282.000,361.224 281.311,362.026 280.718 C 362.718 280.206,363.200 279.481,363.200 278.953 C 363.200 278.327,363.472 278.017,364.100 277.928 C 364.882 277.817,365.016 277.529,365.120 275.725 C 365.231 273.803,365.320 273.640,366.320 273.525 C 367.157 273.428,367.428 273.157,367.525 272.319 C 367.598 271.680,367.961 271.139,368.412 270.996 C 369.097 270.779,369.992 268.694,369.998 267.300 C 369.999 267.025,370.341 266.800,370.757 266.800 C 371.671 266.800,372.000 266.051,372.000 263.967 C 372.000 262.660,372.135 262.400,372.810 262.400 C 373.716 262.400,374.400 261.025,374.400 259.202 C 374.400 258.318,374.606 258.026,375.300 257.928 C 376.084 257.816,376.216 257.529,376.321 255.700 C 376.422 253.941,376.566 253.600,377.207 253.600 C 378.210 253.600,378.800 252.435,378.800 250.454 C 378.800 249.101,378.938 248.836,379.700 248.728 C 380.450 248.621,380.661 248.241,380.964 246.451 C 381.187 245.141,381.694 243.908,382.264 243.293 C 382.996 242.504,383.200 241.829,383.200 240.206 C 383.200 238.412,383.329 238.070,384.143 237.699 C 385.163 237.234,385.600 235.838,385.600 233.045 C 385.600 231.712,385.775 231.313,386.500 230.995 C 387.304 230.642,387.412 230.273,387.516 227.526 C 387.623 224.720,387.709 224.440,388.500 224.326 C 389.538 224.175,389.905 223.067,389.960 219.918 C 389.993 218.049,390.181 217.456,391.000 216.636 C 391.924 215.712,392.000 215.353,392.000 211.893 C 392.000 208.256,392.034 208.117,393.200 207.000 L 394.400 205.850 394.400 200.525 C 394.400 195.567,394.452 195.200,395.157 195.200 C 396.389 195.200,396.548 194.210,396.713 185.500 C 396.840 178.793,396.976 177.200,397.421 177.200 C 398.725 177.200,398.800 175.662,398.800 148.852 C 398.800 122.080,398.700 120.000,397.410 120.000 C 397.005 120.000,396.800 119.614,396.800 118.850 C 396.800 116.346,396.350 115.200,395.366 115.200 C 394.473 115.200,394.427 115.058,394.316 111.900 C 394.201 108.630,394.190 108.599,393.100 108.473 C 392.003 108.347,392.000 108.337,392.000 105.181 C 392.000 102.138,391.961 102.006,391.000 101.764 C 390.090 101.536,390.000 101.322,390.000 99.383 C 390.000 96.634,389.455 95.200,388.410 95.200 C 387.703 95.200,387.600 94.942,387.600 93.174 C 387.600 91.172,387.096 89.669,386.240 89.115 C 385.998 88.959,385.620 87.789,385.400 86.515 C 385.066 84.584,384.854 84.179,384.120 84.075 C 383.361 83.967,383.224 83.663,383.120 81.875 C 383.016 80.071,382.882 79.783,382.100 79.672 C 381.464 79.582,381.200 79.274,381.200 78.622 C 381.200 76.476,380.698 75.190,379.769 74.956 C 378.968 74.756,378.823 74.437,378.720 72.662 C 378.609 70.754,378.519 70.591,377.520 70.475 C 376.520 70.360,376.431 70.197,376.320 68.275 C 376.216 66.471,376.082 66.183,375.300 66.072 C 374.664 65.982,374.400 65.674,374.400 65.022 C 374.400 62.728,373.922 61.600,372.950 61.600 C 372.112 61.600,372.000 61.416,372.000 60.033 C 372.000 57.978,371.672 57.200,370.807 57.200 C 370.340 57.200,370.018 56.789,369.858 55.990 C 369.725 55.324,369.175 54.338,368.635 53.799 C 368.096 53.260,367.598 52.319,367.527 51.709 C 367.428 50.841,367.165 50.573,366.321 50.475 C 365.341 50.362,365.231 50.179,365.121 48.475 C 365.026 47.002,364.814 46.518,364.134 46.220 C 363.655 46.010,363.168 45.339,363.044 44.720 C 362.870 43.848,362.596 43.600,361.810 43.600 C 360.901 43.600,360.800 43.442,360.800 42.029 C 360.800 40.575,360.028 39.200,359.211 39.200 C 359.028 39.200,358.690 38.660,358.460 38.000 C 358.197 37.247,357.765 36.800,357.298 36.800 C 356.748 36.800,356.455 36.356,356.177 35.100 C 355.923 33.954,355.513 33.274,354.918 33.013 C 354.408 32.789,353.986 32.199,353.918 31.613 C 353.838 30.922,353.521 30.560,352.924 30.475 C 352.311 30.388,352.011 30.028,351.924 29.275 C 351.827 28.438,351.557 28.172,350.700 28.073 C 349.738 27.963,349.600 27.774,349.600 26.573 C 349.600 25.052,348.458 23.600,347.262 23.600 C 346.263 23.600,345.201 22.352,345.194 21.169 C 345.182 19.262,344.888 19.167,339.369 19.288 C 334.388 19.396,334.195 19.432,334.075 20.280 C 333.967 21.039,333.663 21.176,331.875 21.280 C 329.953 21.391,329.791 21.480,329.675 22.480 C 329.560 23.480,329.397 23.569,327.475 23.680 C 325.671 23.784,325.383 23.918,325.272 24.700 C 325.174 25.394,324.882 25.600,323.998 25.600 C 322.196 25.600,320.800 26.285,320.800 27.169 C 320.800 27.839,320.483 27.976,318.700 28.079 C 316.909 28.182,316.582 28.325,316.479 29.051 C 316.376 29.771,315.998 29.942,314.018 30.166 C 312.315 30.359,311.417 30.692,310.717 31.392 C 309.984 32.125,309.240 32.382,307.578 32.476 C 305.535 32.592,305.392 32.668,305.273 33.700 L 305.147 34.800 301.402 34.800 C 297.728 34.800,296.400 35.232,296.400 36.429 C 296.400 36.636,294.322 36.802,291.700 36.805 C 285.962 36.812,285.200 36.981,285.200 38.247 L 285.200 39.200 277.243 39.200 L 269.287 39.200 269.049 38.253 C 268.756 37.087,267.396 36.811,261.928 36.804 C 258.218 36.800,258.050 36.762,257.928 35.900 C 257.809 35.061,257.577 34.992,254.500 34.884 C 251.335 34.772,251.200 34.729,251.200 33.827 C 251.200 32.738,250.539 32.400,248.413 32.400 C 247.256 32.400,246.744 32.174,246.274 31.456 C 245.846 30.804,245.141 30.444,243.988 30.289 C 242.935 30.148,242.107 29.759,241.739 29.234 C 241.391 28.737,240.508 28.299,239.547 28.145 C 238.371 27.957,237.844 27.641,237.589 26.971 C 237.324 26.275,236.812 25.991,235.454 25.787 C 234.011 25.571,233.620 25.334,233.426 24.560 C 233.258 23.892,232.903 23.600,232.257 23.600 C 231.662 23.600,231.169 23.251,230.885 22.628 C 230.546 21.883,230.016 21.591,228.621 21.382 C 227.045 21.146,226.800 20.981,226.800 20.155 C 226.800 19.365,226.597 19.200,225.627 19.200 C 224.644 19.200,224.433 19.021,224.327 18.100 C 224.228 17.243,223.962 16.973,223.125 16.876 C 222.374 16.789,222.012 16.489,221.925 15.880 C 221.855 15.394,221.454 14.942,221.018 14.859 C 220.589 14.777,219.754 14.235,219.164 13.655 C 217.004 11.529,215.262 10.000,215.001 10.000 C 214.513 10.000,211.213 6.609,211.207 6.100 C 211.203 5.825,210.943 5.600,210.629 5.600 C 210.315 5.600,209.696 5.139,209.253 4.576 C 206.985 1.694,204.765 1.098,201.800 2.577 M207.544 50.197 C 210.011 51.846,212.518 53.475,213.115 53.818 C 213.712 54.161,215.190 55.046,216.400 55.785 C 220.744 58.436,234.851 65.197,236.050 65.202 C 236.353 65.204,237.140 65.496,237.800 65.852 C 239.129 66.569,245.172 68.468,249.200 69.435 C 250.630 69.778,252.790 70.310,254.000 70.619 C 264.040 73.175,284.358 73.230,296.000 70.734 C 302.562 69.327,312.164 66.691,312.890 66.098 C 313.171 65.869,314.300 65.416,315.400 65.091 C 317.564 64.452,318.975 63.842,325.975 60.521 C 333.818 56.799,333.486 56.586,340.407 69.800 C 341.790 72.440,343.432 75.147,344.057 75.815 C 344.681 76.483,345.793 78.193,346.529 79.615 C 347.264 81.037,348.616 83.635,349.533 85.389 C 350.450 87.143,351.200 88.766,351.200 88.996 C 351.200 89.226,351.621 90.041,352.135 90.807 C 352.649 91.573,353.270 92.785,353.514 93.499 C 353.758 94.213,354.417 95.400,354.979 96.137 C 355.540 96.873,356.000 97.615,356.000 97.786 C 356.000 98.117,360.024 105.262,360.400 105.600 C 361.188 106.306,363.758 110.345,364.188 111.550 C 364.472 112.348,365.626 114.887,366.752 117.192 C 367.878 119.498,368.800 121.583,368.800 121.825 C 368.800 122.066,369.243 123.140,369.785 124.210 C 371.345 127.292,371.881 127.175,355.655 127.300 L 341.400 127.410 356.651 127.505 C 368.844 127.581,371.992 127.708,372.348 128.138 C 374.054 130.193,373.779 179.520,372.037 184.103 C 371.835 184.635,371.378 187.395,371.022 190.235 C 370.667 193.076,370.024 196.588,369.595 198.039 C 369.165 199.490,368.644 201.830,368.436 203.239 C 368.229 204.648,367.685 206.863,367.229 208.163 C 366.773 209.462,366.400 210.952,366.400 211.475 C 366.400 211.997,365.967 213.454,365.437 214.713 C 364.907 215.971,364.342 217.721,364.182 218.601 C 364.022 219.480,363.465 221.049,362.945 222.087 C 362.425 223.124,362.000 224.299,362.000 224.697 C 362.000 225.095,361.466 226.496,360.813 227.810 C 360.159 229.125,359.619 230.452,359.613 230.760 C 359.606 231.068,359.127 232.328,358.548 233.560 C 357.969 234.792,356.966 236.970,356.318 238.400 C 355.670 239.830,354.887 241.450,354.577 242.000 C 354.267 242.550,353.740 243.630,353.404 244.400 C 353.068 245.170,352.539 246.250,352.228 246.800 C 351.916 247.350,350.807 249.330,349.762 251.200 C 348.716 253.070,347.561 255.050,347.193 255.600 C 345.784 257.710,344.212 260.118,343.815 260.777 C 333.989 277.069,312.796 299.465,294.400 312.996 C 292.310 314.533,290.420 315.983,290.200 316.219 C 289.825 316.619,288.402 317.612,284.777 320.000 C 281.878 321.911,278.194 324.384,277.200 325.088 C 276.277 325.741,274.859 326.619,266.931 331.449 C 265.353 332.410,263.643 333.383,263.131 333.612 C 262.619 333.841,261.210 334.634,260.000 335.374 C 255.562 338.088,230.229 350.536,228.092 351.053 C 227.492 351.198,226.548 351.632,225.996 352.017 C 225.444 352.402,224.201 352.931,223.232 353.191 C 222.264 353.452,221.086 353.918,220.615 354.227 C 220.143 354.536,218.696 355.154,217.400 355.600 C 216.104 356.046,214.673 356.650,214.221 356.942 C 213.770 357.234,212.866 357.605,212.213 357.766 C 211.560 357.927,210.103 358.496,208.974 359.029 C 206.296 360.297,204.912 360.254,201.600 358.800 C 200.096 358.140,198.536 357.596,198.133 357.591 C 197.730 357.586,196.614 357.226,195.654 356.790 C 194.694 356.355,192.804 355.712,191.454 355.362 C 190.104 355.013,188.550 354.482,188.000 354.183 C 187.450 353.884,185.920 353.344,184.600 352.982 C 183.280 352.620,182.003 352.163,181.763 351.966 C 181.523 351.769,180.083 351.178,178.563 350.654 C 174.199 349.149,171.068 347.920,170.200 347.371 C 169.760 347.093,168.590 346.654,167.600 346.395 C 166.610 346.137,165.518 345.675,165.174 345.368 C 164.830 345.061,163.930 344.612,163.174 344.370 C 161.447 343.817,158.889 342.613,149.600 337.979 C 142.394 334.385,141.023 333.658,136.145 330.850 C 134.855 330.107,133.080 329.099,132.200 328.610 C 130.531 327.682,127.720 325.877,126.956 325.243 C 126.712 325.040,125.812 324.494,124.956 324.030 C 124.100 323.566,121.870 322.106,120.000 320.785 C 118.130 319.464,116.150 318.074,115.600 317.696 C 115.050 317.317,113.520 316.199,112.200 315.211 C 110.880 314.224,109.620 313.283,109.400 313.120 C 99.094 305.521,82.628 289.303,75.200 279.436 C 74.430 278.413,73.061 276.637,72.157 275.488 C 53.480 251.753,39.877 216.150,35.749 180.200 C 33.836 163.542,33.436 128.975,35.145 128.125 C 35.505 127.946,40.480 127.704,46.200 127.587 L 56.600 127.374 45.400 127.281 C 31.875 127.168,32.751 127.537,34.125 122.529 C 34.718 120.368,35.483 117.355,35.826 115.833 C 36.168 114.312,36.687 112.602,36.979 112.033 C 37.270 111.465,37.731 109.924,38.002 108.608 C 38.273 107.293,38.900 105.313,39.395 104.208 C 39.890 103.104,40.418 101.680,40.569 101.045 C 40.720 100.410,41.262 99.330,41.774 98.645 C 42.286 97.960,42.981 96.854,43.319 96.186 C 43.656 95.518,44.392 94.725,44.955 94.424 C 45.541 94.110,46.177 93.262,46.443 92.438 C 46.698 91.647,47.513 89.848,48.253 88.440 C 48.994 87.032,49.600 85.688,49.600 85.455 C 49.600 84.207,52.991 78.322,54.015 77.792 C 54.798 77.387,55.326 76.626,55.787 75.238 C 56.148 74.151,56.684 73.062,56.978 72.818 C 57.272 72.574,57.890 71.496,58.352 70.422 C 59.162 68.540,59.291 68.438,61.896 67.627 C 64.214 66.905,64.829 66.503,66.200 64.812 C 68.050 62.532,69.192 62.289,71.902 63.598 C 86.100 70.458,111.865 76.075,126.400 75.479 C 142.977 74.799,161.939 70.190,173.664 63.990 C 174.029 63.797,176.099 62.716,178.264 61.588 C 183.558 58.829,185.683 57.635,186.400 57.013 C 186.730 56.727,187.720 56.109,188.600 55.639 C 189.480 55.170,191.280 53.984,192.600 53.004 C 195.878 50.570,199.109 48.301,200.142 47.706 C 201.798 46.753,202.987 47.153,207.544 50.197 " stroke="none" fill="#b1b1b1" fill-rule="evenodd"></path></g></svg>