<svg width="467" height="400" viewBox="0 0 467 400" fill="none" xmlns="http://www.w3.org/2000/svg">
<path fill-rule="evenodd" clip-rule="evenodd" d="M233.5 400C208.457 379.801 176.595 367.706 141.905 367.706L109.453 367.708C49.003 367.708 0 318.74 0 258.333C0 235.47 7.08157 214.154 19.0861 196.603C28.0911 183.41 33.3571 167.462 33.3571 150.287C33.3571 123.177 20.2395 99.1297 0 84.137L83.3918 0C104.776 14.564 130.616 23.0779 158.446 23.0779C186.276 23.0779 212.116 14.5645 233.5 0.000508646C254.884 14.5645 280.723 23.0779 308.554 23.0779C336.384 23.0779 362.224 14.564 383.608 0L467 84.137C446.761 99.1297 433.643 123.177 433.643 150.287C433.643 167.462 438.909 183.41 447.914 196.603C459.918 214.154 467 235.47 467 258.333C467 318.74 417.997 367.708 357.547 367.708L325.095 367.706C290.405 367.706 258.542 379.801 233.5 400Z" fill="white"/>
<path fill-rule="evenodd" clip-rule="evenodd" d="M105 321C59.5469 316 49 293 49 258.333C49 240.034 54.3913 222.988 64 208.938C70 189 79 171.999 79 150.287C79 124.982 78.9979 101.774 64 83.7402L84.7162 57C106.142 68.1267 132.677 68 158.446 68C185.635 68 211.24 59.2965 233.5 47C255.76 59.2965 281.364 68 308.554 68C334.323 68 360.858 68.1267 382.284 57L406 83.7402C391.002 101.775 392 124.982 392 150.287C392 171.999 394.594 192.228 406 208.938C415.609 222.988 424.261 254.7 424.261 273C406.178 319.667 382.284 321 357.547 321H308.554C274.783 321 259.841 329.829 233.5 347C207.158 329.829 175.675 321 141.905 321H105ZM141.905 358.331L109.453 358.333C54.184 358.333 9.3817 313.562 9.3817 258.333C9.3817 237.425 15.856 217.94 26.8339 201.889C36.8682 187.188 42.7388 169.406 42.7388 150.287C42.7388 123.95 31.6174 100.208 13.8374 83.4981L84.7162 11.9863C106.242 24.9776 131.482 32.4529 158.446 32.4529C185.964 32.4529 211.687 24.6668 233.5 11.1781C255.312 24.6668 281.036 32.4529 308.554 32.4529C335.518 32.4529 360.758 24.9776 382.284 11.9863L453.163 83.4981C435.383 100.208 424.261 123.95 424.261 150.287C424.261 169.406 430.132 187.188 440.166 201.889C451.144 217.94 457.618 237.425 457.618 258.333C457.618 313.562 412.815 358.333 357.547 358.333L325.095 358.331C290.853 358.331 259.18 369.415 233.5 388.18C207.82 369.415 176.147 358.331 141.905 358.331Z" fill="#b1b1b1"/>
</svg>
